<svg xmlns="http://www.w3.org/2000/svg" xmlns:xlink="http://www.w3.org/1999/xlink" viewBox="0 0 1280 640"><defs><style>.cls-1{fill:#060519;}.cls-2{fill:url(#linear-gradient);}.cls-3{fill:url(#linear-gradient-2);}.cls-4{fill:url(#linear-gradient-3);}.cls-5{fill:url(#linear-gradient-4);}.cls-6{fill:url(#linear-gradient-5);}.cls-7{fill:url(#linear-gradient-6);}.cls-8{font-size:121.94px;fill:#e0e0e0;font-family:VisbyCF-Bold, Visby CF;font-weight:700;}</style><linearGradient id="linear-gradient" x1="459.76" y1="797.64" x2="520.22" y2="797.64" gradientTransform="translate(-231.86 -469.94)" gradientUnits="userSpaceOnUse"><stop offset="0" stop-color="#158cf0"/><stop offset="1" stop-color="#0c49ac"/></linearGradient><linearGradient id="linear-gradient-2" x1="474.99" y1="866.75" x2="520.22" y2="866.75" xlink:href="#linear-gradient"/><linearGradient id="linear-gradient-3" x1="520.22" y1="833.6" x2="565.58" y2="833.6" gradientTransform="translate(-231.86 -469.94)" gradientUnits="userSpaceOnUse"><stop offset="0" stop-color="#1279dd"/><stop offset="1" stop-color="#0c49ac"/></linearGradient><linearGradient id="linear-gradient-4" x1="631.93" y1="789.67" x2="571.46" y2="789.67" gradientTransform="translate(-231.86 -469.94)" gradientUnits="userSpaceOnUse"><stop offset="0" stop-color="#f77565"/><stop offset="1" stop-color="#b42f21"/></linearGradient><linearGradient id="linear-gradient-5" x1="611.92" y1="713.13" x2="566.68" y2="713.13" xlink:href="#linear-gradient-4"/><linearGradient id="linear-gradient-6" x1="520.22" y1="746.22" x2="565.58" y2="746.22" gradientTransform="translate(-231.86 -469.94)" gradientUnits="userSpaceOnUse"><stop offset="0" stop-color="#b42f21"/><stop offset="1" stop-color="#f75c48"/></linearGradient></defs><g id="Layer_2" data-name="Layer 2"><g id="Layer_2-2" data-name="Layer 2"><rect class="cls-1" width="1280" height="640"/></g><g id="Layer_1-2" data-name="Layer 1"><rect class="cls-2" x="227.9" y="305.03" width="60.47" height="45.35"/><polygon class="cls-3" points="288.37 358.16 288.37 422.29 275.19 435.46 243.13 403.4 288.37 358.16"/><path class="cls-4" d="M333.72,363.6v.12a31.88,31.88,0,0,1-9.35,22.57l-36,36V305l36,36A31.9,31.9,0,0,1,333.72,363.6Z"/><path class="cls-5" d="M394.19,297.06v45.35H352a25.8,25.8,0,0,1-18.25-7.56h0V297.06Z"/><polygon class="cls-6" points="378.96 236.61 333.72 281.84 333.72 217.71 346.89 204.54 378.96 236.61"/><path class="cls-7" d="M333.72,217.71V334.85l-36-36a31.9,31.9,0,0,1-9.35-22.57h0a31.92,31.92,0,0,1,9.35-22.57Z"/><text class="cls-8" transform="translate(466.64 309.25)">frame one<tspan x="0" y="119.72">table</tspan></text></g></g></svg>