<svg xmlns="http://www.w3.org/2000/svg" xmlns:xlink="http://www.w3.org/1999/xlink" viewBox="0 0 1280 640"><defs><style>.cls-1{fill:#060519;}.cls-2{fill:url(#linear-gradient);}.cls-3{fill:url(#linear-gradient-2);}.cls-4{fill:url(#linear-gradient-3);}.cls-5{fill:url(#linear-gradient-4);}.cls-6{fill:url(#linear-gradient-5);}.cls-7{fill:url(#linear-gradient-6);}.cls-8{font-size:121.94px;fill:#e0e0e0;font-family:VisbyCF-Bold, Visby CF;font-weight:700;}.cls-9{fill:#0c49ac;}</style><linearGradient id="linear-gradient" x1="481.61" y1="830.92" x2="542.08" y2="830.92" gradientTransform="translate(-231.86 -469.94)" gradientUnits="userSpaceOnUse"><stop offset="0" stop-color="#158cf0"/><stop offset="1" stop-color="#0c49ac"/></linearGradient><linearGradient id="linear-gradient-2" x1="496.84" y1="900.03" x2="542.08" y2="900.03" xlink:href="#linear-gradient"/><linearGradient id="linear-gradient-3" x1="542.08" y1="866.88" x2="587.43" y2="866.88" gradientTransform="translate(-231.86 -469.94)" gradientUnits="userSpaceOnUse"><stop offset="0" stop-color="#1279dd"/><stop offset="1" stop-color="#0c49ac"/></linearGradient><linearGradient id="linear-gradient-4" x1="653.78" y1="822.95" x2="593.31" y2="822.95" gradientTransform="translate(-231.86 -469.94)" gradientUnits="userSpaceOnUse"><stop offset="0" stop-color="#f77565"/><stop offset="1" stop-color="#b42f21"/></linearGradient><linearGradient id="linear-gradient-5" x1="633.77" y1="746.41" x2="588.54" y2="746.41" xlink:href="#linear-gradient-4"/><linearGradient id="linear-gradient-6" x1="542.08" y1="779.5" x2="587.43" y2="779.5" gradientTransform="translate(-231.86 -469.94)" gradientUnits="userSpaceOnUse"><stop offset="0" stop-color="#b42f21"/><stop offset="1" stop-color="#f75c48"/></linearGradient></defs><g id="Layer_2" data-name="Layer 2"><g id="Layer_2-2" data-name="Layer 2"><rect class="cls-1" width="1280" height="640"/></g><g id="Layer_1-2" data-name="Layer 1"><rect class="cls-2" x="249.75" y="338.31" width="60.47" height="45.35"/><polygon class="cls-3" points="310.22 391.43 310.22 455.57 297.05 468.74 264.98 436.68 310.22 391.43"/><path class="cls-4" d="M355.57,396.88V397a31.88,31.88,0,0,1-9.35,22.57l-36,36V338.31l36,36A31.88,31.88,0,0,1,355.57,396.88Z"/><path class="cls-5" d="M416,330.34v45.35H373.82a25.82,25.82,0,0,1-18.25-7.56h0V330.34Z"/><polygon class="cls-6" points="400.81 269.88 355.57 315.12 355.57 250.99 368.75 237.81 400.81 269.88"/><path class="cls-7" d="M355.57,251V368.13l-36-36a31.92,31.92,0,0,1-9.35-22.57h0A31.9,31.9,0,0,1,319.57,287Z"/><text class="cls-8" transform="translate(488.49 342.53)">frame one<tspan x="0" y="119.72">table</tspan></text><path class="cls-9" d="M292.2,175.66a.65.65,0,0,1-.19-.48V161.1h-2.53a.64.64,0,0,1-.48-.2.61.61,0,0,1-.19-.47v-2.24a.66.66,0,0,1,.19-.49.67.67,0,0,1,.48-.19H292v-1a5.38,5.38,0,0,1,1.55-4,5.47,5.47,0,0,1,4.05-1.54h3a.62.62,0,0,1,.48.19.65.65,0,0,1,.19.48v2.18a.65.65,0,0,1-.19.48.62.62,0,0,1-.48.19h-3a1.65,1.65,0,0,0-1.26.5,1.86,1.86,0,0,0-.46,1.33v1.24H300a.67.67,0,0,1,.48.19.66.66,0,0,1,.2.49v2.24a.62.62,0,0,1-.2.47.64.64,0,0,1-.48.2h-4.12v14.08a.66.66,0,0,1-.2.48.67.67,0,0,1-.48.19h-2.49A.66.66,0,0,1,292.2,175.66Z"/><path class="cls-9" d="M304.4,175.66a.69.69,0,0,1-.19-.48v-2.37a.69.69,0,0,1,.19-.48.66.66,0,0,1,.49-.19h2.43v-11h-2.75a.66.66,0,0,1-.49-.19.69.69,0,0,1-.19-.48v-2.27a.65.65,0,0,1,.68-.68h5a1.35,1.35,0,0,1,1,.4,1.32,1.32,0,0,1,.4,1V160l1.73-1.38a8,8,0,0,1,1.66-1.07,4.26,4.26,0,0,1,1.67-.3h1a.65.65,0,0,1,.67.67v2.47a.61.61,0,0,1-.19.47.66.66,0,0,1-.48.2h-.83a3.19,3.19,0,0,0-1.44.29,10.74,10.74,0,0,0-1.86,1.27l-1.76,1.41v8.07h3.17a.65.65,0,0,1,.67.67v2.37a.65.65,0,0,1-.19.48.69.69,0,0,1-.48.19h-9.34A.7.7,0,0,1,304.4,175.66Z"/><path class="cls-9" d="M321.75,174.74a5.07,5.07,0,0,1-1.68-4,4.84,4.84,0,0,1,1.53-3.66,7.93,7.93,0,0,1,4.32-1.9c.47,0,.92-.11,1.35-.2,1.49-.17,2.4-.3,2.72-.38a1.24,1.24,0,0,0,1.18-1.34,2.27,2.27,0,0,0-1-1.91,4,4,0,0,0-2.44-.72,4.13,4.13,0,0,0-3.78,1.89.71.71,0,0,1-.61.41.65.65,0,0,1-.41-.12l-1.8-1.22a.61.61,0,0,1-.28-.54,1.06,1.06,0,0,1,.06-.29,6.55,6.55,0,0,1,2.75-2.74,8.62,8.62,0,0,1,4.13-1,8.11,8.11,0,0,1,3.71.8,5.87,5.87,0,0,1,2.48,2.27,6.44,6.44,0,0,1,.88,3.39v11.62a.65.65,0,0,1-.19.48.69.69,0,0,1-.48.19H332a.68.68,0,0,1-.48-.18.65.65,0,0,1-.19-.49v-1.25a7,7,0,0,1-5.25,2.34A6.22,6.22,0,0,1,321.75,174.74Zm7-2.54a5.31,5.31,0,0,0,1.81-1.68,3.88,3.88,0,0,0,.69-2.19v-.64l-2.4.35c-1.31.15-2.15.27-2.53.35-1.75.32-2.63,1.08-2.63,2.27a1.94,1.94,0,0,0,.74,1.59,3,3,0,0,0,1.95.59A4.69,4.69,0,0,0,328.77,172.2Z"/><path class="cls-9" d="M339.73,175.66a.66.66,0,0,1-.2-.48v-17a.66.66,0,0,1,.2-.49.66.66,0,0,1,.48-.19h2.49a.69.69,0,0,1,.48.19.66.66,0,0,1,.19.49v1.66a6.26,6.26,0,0,1,2.2-2.07,5.58,5.58,0,0,1,2.67-.68,5.82,5.82,0,0,1,3.12.83,5.92,5.92,0,0,1,2.16,2.37,6.32,6.32,0,0,1,2.4-2.36,6.51,6.51,0,0,1,3.23-.84,5.6,5.6,0,0,1,4.42,1.84,7.1,7.1,0,0,1,1.63,4.88v11.36a.65.65,0,0,1-.67.67H362a.69.69,0,0,1-.48-.19.65.65,0,0,1-.19-.48V164.3a4,4,0,0,0-.77-2.61,2.72,2.72,0,0,0-2.21-.91,3.82,3.82,0,0,0-3,1.23,4.86,4.86,0,0,0-1.1,3.38v9.79a.67.67,0,0,1-.68.67h-2.49a.69.69,0,0,1-.48-.19.65.65,0,0,1-.19-.48V164.3a4,4,0,0,0-.77-2.61,2.72,2.72,0,0,0-2.21-.91,3.8,3.8,0,0,0-3,1.23,4.87,4.87,0,0,0-1.11,3.38v9.79a.65.65,0,0,1-.19.48.69.69,0,0,1-.48.19h-2.49A.66.66,0,0,1,339.73,175.66Z"/><path class="cls-9" d="M372.93,174.82a7.66,7.66,0,0,1-3.8-6.62v-3.46a7.66,7.66,0,0,1,3.8-6.62,7.66,7.66,0,0,1,7.64,0,7.66,7.66,0,0,1,3.8,6.62v2.15a1.38,1.38,0,0,1-1.38,1.38H373v.16a3.77,3.77,0,0,0,3.78,3.77h5.09a.69.69,0,0,1,.48.19.65.65,0,0,1,.19.48v2.31a.65.65,0,0,1-.19.48.69.69,0,0,1-.48.19h-5.09A7.32,7.32,0,0,1,372.93,174.82Zm7.6-10v-.29a3.78,3.78,0,0,0-7.56,0v.29Z"/><path class="cls-9" d="M396.23,175.26a7.66,7.66,0,0,1-2.77-2.74,7.23,7.23,0,0,1-1-3.74v-4.2a7.23,7.23,0,0,1,1-3.74,7.55,7.55,0,0,1,2.77-2.73,7.75,7.75,0,0,1,7.65,0,7.53,7.53,0,0,1,2.76,2.73,7.14,7.14,0,0,1,1,3.74v4.2a7.14,7.14,0,0,1-1,3.74,7.58,7.58,0,0,1-6.59,3.75A7.5,7.5,0,0,1,396.23,175.26Zm6.49-3.81a3.64,3.64,0,0,0,1.11-2.67v-4.2a3.78,3.78,0,1,0-7.55,0v4.2a3.78,3.78,0,0,0,6.44,2.67Z"/><path class="cls-9" d="M412.08,175.66a.66.66,0,0,1-.2-.48v-17a.66.66,0,0,1,.2-.49.66.66,0,0,1,.48-.19h2.49a.69.69,0,0,1,.48.19.66.66,0,0,1,.19.49v1.5a6.77,6.77,0,0,1,2.13-1.91,5.53,5.53,0,0,1,2.71-.68,6.4,6.4,0,0,1,3.28.86,6.13,6.13,0,0,1,2.28,2.4,7.12,7.12,0,0,1,.84,3.46v11.36a.67.67,0,0,1-.68.67h-2.49a.69.69,0,0,1-.48-.19.66.66,0,0,1-.2-.48V164.3a3.64,3.64,0,0,0-.86-2.61,3.18,3.18,0,0,0-2.43-.91,3.8,3.8,0,0,0-3,1.23,4.87,4.87,0,0,0-1.11,3.38v9.79a.65.65,0,0,1-.19.48.69.69,0,0,1-.48.19h-2.49A.66.66,0,0,1,412.08,175.66Z"/><path class="cls-9" d="M434.67,174.82a7.62,7.62,0,0,1-3.79-6.62v-3.46a7.62,7.62,0,0,1,3.79-6.62,7.68,7.68,0,0,1,7.65,0,7.59,7.59,0,0,1,2.76,2.78,7.47,7.47,0,0,1,1,3.84v2.15a1.38,1.38,0,0,1-1.38,1.38h-10v.16a3.63,3.63,0,0,0,1.1,2.67,3.67,3.67,0,0,0,2.67,1.1h5.09a.69.69,0,0,1,.48.19.65.65,0,0,1,.19.48v2.31a.65.65,0,0,1-.19.48.69.69,0,0,1-.48.19h-5.09A7.32,7.32,0,0,1,434.67,174.82Zm7.6-10v-.29a3.78,3.78,0,1,0-7.55,0v.29Z"/><path class="cls-9" d="M221.52,178.25l3.95,3.95,1.05-1a8.53,8.53,0,0,0,.43-11.6l-6.47-6.47-7.06,7.06,4,4,3.11-3.11,2.34,2.33a3,3,0,0,1-.25,3.88Z"/><path class="cls-9" d="M227.81,153.2l22.36,22.36a8.53,8.53,0,0,0,11.59-.44l6-6-35.23-35.23a8.51,8.51,0,0,0-12.05,0l-6,6,13.33,13.33Zm-3.36-15.39a2.93,2.93,0,0,1,4.15,0l31.28,31.28-2.07,2.08a3,3,0,0,1-2.08.86,2.89,2.89,0,0,1-1.79-.61l-22.17-22.17-4-3.95v0l-5.43-5.43Z"/><path class="cls-9" d="M207.75,183.71l2.64-2.64-3.95-3.95-6.59,6.59a8.53,8.53,0,0,0,0,12.06l6,6,6-6,4-4,2.64-2.64-3.95-4-4.85,4.86L208,191.82l-2.08,2.07-2.08-2.07a3,3,0,0,1,0-4.16Z"/><path class="cls-9" d="M191.84,175.7l1.52,1.51,3.94,3.95,1,1,3.95-3.95-5-5-1.51-1.52-.56-.57a2.92,2.92,0,0,1,0-4.14l13.58-13.59,3.12-3.11h0l2.34,2.34a3,3,0,0,1-.25,3.88l-1,1h0l-6.05,6h0l-1.51,1.51h0l-3.95,4,21.1,21.1,6,6a3,3,0,0,1,0,4.15l-2.08,2.08-2.08-2.08-7.06-7.06-4,3.95,7.06,7.06,6,6,6-6a8.52,8.52,0,0,0,0-12.05L224,183.71l-4-4-4.15-4.15-6.5-6.5,1.51-1.51,3.25-3.24,2.8-2.8h0L218,160.5a8.51,8.51,0,0,0,.43-11.59l-6.46-6.47h0l-7.06,7.07-13.58,13.58a8.53,8.53,0,0,0,0,12.06Z"/><path class="cls-9" d="M291.42,191.56a.2.2,0,0,1-.05-.09.17.17,0,0,1,0-.1.34.34,0,0,1,.07-.11l.78-.74a.19.19,0,0,1,.14-.07.19.19,0,0,1,.1,0,.38.38,0,0,1,.11.08l.28.22a4,4,0,0,0,.34.23,2.53,2.53,0,0,0,.37.18,1.41,1.41,0,0,0,.41.07,1.27,1.27,0,0,0,.37,0,.64.64,0,0,0,.23-.14.33.33,0,0,0,.11-.2.67.67,0,0,0,0-.24.39.39,0,0,0-.1-.25,1,1,0,0,0-.25-.19,1.68,1.68,0,0,0-.3-.15l-.28-.1a6.15,6.15,0,0,1-1-.41,3.36,3.36,0,0,1-.69-.48,2,2,0,0,1-.42-.6,1.8,1.8,0,0,1-.14-.71,1.61,1.61,0,0,1,.18-.76,1.63,1.63,0,0,1,.5-.58A2.22,2.22,0,0,1,293,186a3.35,3.35,0,0,1,1-.13,3.15,3.15,0,0,1,.61.06,3,3,0,0,1,.6.18,2.74,2.74,0,0,1,.54.28,2.18,2.18,0,0,1,.43.35.32.32,0,0,1,.09.21.31.31,0,0,1-.11.21l-.69.73a.17.17,0,0,1-.14.07.27.27,0,0,1-.12,0l-.12-.09a2.27,2.27,0,0,0-.5-.35,1.25,1.25,0,0,0-.59-.13,1.06,1.06,0,0,0-.25,0,.78.78,0,0,0-.23.07.56.56,0,0,0-.16.14.38.38,0,0,0-.07.22.38.38,0,0,0,.07.21.6.6,0,0,0,.21.17,1.26,1.26,0,0,0,.33.15l.44.16a7.22,7.22,0,0,1,.87.33,2.51,2.51,0,0,1,.68.41,1.68,1.68,0,0,1,.44.56,1.78,1.78,0,0,1,.16.8,2,2,0,0,1-.19.9,2.09,2.09,0,0,1-.54.68,2.39,2.39,0,0,1-.82.44,3.3,3.3,0,0,1-1,.16,2.35,2.35,0,0,1-.69-.1,4,4,0,0,1-.66-.24,3.87,3.87,0,0,1-.59-.36,4.36,4.36,0,0,1-.5-.44Z"/><path class="cls-9" d="M299.34,188a3.39,3.39,0,0,1,1.84-1.83,3.31,3.31,0,0,1,1.34-.27,3.38,3.38,0,0,1,1.34.27,3.54,3.54,0,0,1,1.09.73,3.49,3.49,0,0,1,.74,1.1,3.34,3.34,0,0,1,.27,1.34,3.38,3.38,0,0,1-.27,1.34,3.51,3.51,0,0,1-1.83,1.83,3.38,3.38,0,0,1-1.34.27,3.31,3.31,0,0,1-1.34-.27,3.49,3.49,0,0,1-1.1-.74,3.56,3.56,0,0,1-.74-1.09,3.38,3.38,0,0,1-.27-1.34A3.34,3.34,0,0,1,299.34,188Zm1.59,2a1.92,1.92,0,0,0,.36.56,1.6,1.6,0,0,0,.54.38,1.58,1.58,0,0,0,.69.14,1.53,1.53,0,0,0,.68-.14,1.6,1.6,0,0,0,.54-.38,1.58,1.58,0,0,0,.36-.56,1.95,1.95,0,0,0,0-1.4,1.62,1.62,0,0,0-.36-.57,1.6,1.6,0,0,0-.54-.38,1.69,1.69,0,0,0-.68-.14,1.74,1.74,0,0,0-.69.14,1.6,1.6,0,0,0-.54.38,2,2,0,0,0-.36.57,1.95,1.95,0,0,0,0,1.4Z"/><path class="cls-9" d="M308.89,186.23c0-.14.06-.2.19-.2h4.29c.13,0,.19.06.19.2v1.15c0,.13-.06.2-.19.2h-2.74V189h2c.13,0,.19.06.19.2v1.09c0,.13-.06.2-.19.2h-2v2a.18.18,0,0,1-.2.2h-1.35c-.13,0-.19-.06-.19-.2Z"/><path class="cls-9" d="M316.12,186.23a.18.18,0,0,1,.2-.2h4.89c.13,0,.19.06.19.2v1.14c0,.13-.06.2-.19.2h-1.6v4.94a.18.18,0,0,1-.2.2h-1.3a.18.18,0,0,1-.2-.2v-4.94h-1.59a.18.18,0,0,1-.2-.2Z"/><path class="cls-9" d="M328.38,190.78l-.63,1.73a.26.26,0,0,1-.27.2h-1.12a.28.28,0,0,1-.28-.2l-2.4-6.28a.17.17,0,0,1,0-.14s.06-.06.13-.06h1.45a.26.26,0,0,1,.27.2l1.37,4.05,1.25-4.05a.25.25,0,0,1,.27-.2h1.49c.07,0,.11,0,.13.06a.17.17,0,0,1,0,.14l-.81,2.22.64,1.85,1.45-4.07a.25.25,0,0,1,.27-.2h1.47c.07,0,.11,0,.13.06a.17.17,0,0,1,0,.14l-2.52,6.28a.27.27,0,0,1-.28.2h-1.05a.28.28,0,0,1-.28-.2Z"/><path class="cls-9" d="M336.66,186.23a.28.28,0,0,1,.28-.2H338a.26.26,0,0,1,.27.2l2.46,6.28c.05.14,0,.2-.13.2H339.3a.25.25,0,0,1-.26-.2l-.32-.88h-2.46l-.3.88a.25.25,0,0,1-.27.2h-1.34c-.14,0-.18-.06-.13-.2Zm.82,1.91-.71,2.05h1.44Z"/><path class="cls-9" d="M343.44,186.23a.24.24,0,0,1,.05-.14.17.17,0,0,1,.14-.06h3a1.92,1.92,0,0,1,.87.19,2.25,2.25,0,0,1,.67.51,2.35,2.35,0,0,1,.44.71,2.43,2.43,0,0,1,.15.83,1.59,1.59,0,0,1-.08.53,2.24,2.24,0,0,1-.22.5,2.48,2.48,0,0,1-.35.45,2.17,2.17,0,0,1-.44.36l1.28,2.4a.14.14,0,0,1,0,.14.12.12,0,0,1-.12.06h-1.62a.2.2,0,0,1-.14,0,.32.32,0,0,1-.1-.15l-1.07-2h-.72v2a.18.18,0,0,1-.2.2h-1.35c-.12,0-.19-.06-.19-.2Zm1.74,1.19v1.63h1a.72.72,0,0,0,.33-.07.94.94,0,0,0,.25-.18.9.9,0,0,0,.17-.26.78.78,0,0,0,0-.6,1.06,1.06,0,0,0-.17-.26.92.92,0,0,0-.25-.19.72.72,0,0,0-.33-.07Z"/><path class="cls-9" d="M351.56,186.23a.18.18,0,0,1,.2-.2h4.47a.18.18,0,0,1,.2.2v1.15a.18.18,0,0,1-.2.2H353.3v1.11h2.23a.28.28,0,0,1,.16.05.18.18,0,0,1,.06.16v.92c0,.13-.08.2-.22.2H353.3v1.15h3a.18.18,0,0,1,.2.2v1.14a.18.18,0,0,1-.2.2h-4.56a.18.18,0,0,1-.2-.2Z"/><path class="cls-9" d="M364.07,186.23c0-.14.06-.2.19-.2h1.35a.18.18,0,0,1,.2.2v6.28a.18.18,0,0,1-.2.2h-1.35c-.13,0-.19-.06-.19-.2Z"/><path class="cls-9" d="M370.75,188.62v3.89c0,.14-.08.2-.22.2h-1.26a.18.18,0,0,1-.2-.2v-6.28a.24.24,0,0,1,.05-.14.19.19,0,0,1,.15-.06h1.46a.31.31,0,0,1,.18.05.67.67,0,0,1,.14.15l2.25,3.65v-3.65a.24.24,0,0,1,.05-.14.18.18,0,0,1,.15-.06h1.25a.3.3,0,0,1,.15.05.18.18,0,0,1,.07.15v6.28c0,.14-.07.2-.22.2h-1.31a.36.36,0,0,1-.33-.2Z"/><path class="cls-9" d="M382.3,190.77a.15.15,0,0,1,.09,0,.14.14,0,0,1,.13.08l.74,1.08a.19.19,0,0,1,.06.16.46.46,0,0,1-.12.13,3.68,3.68,0,0,1-.84.43,3.13,3.13,0,0,1-1.1.18,3.39,3.39,0,0,1-1.35-.27,3.56,3.56,0,0,1-1.09-.74,3.61,3.61,0,0,1-.74-1.1,3.37,3.37,0,0,1,0-2.69,3.44,3.44,0,0,1,1.83-1.82,3.39,3.39,0,0,1,1.35-.27,3.58,3.58,0,0,1,.58.05,4.42,4.42,0,0,1,.52.14,2.67,2.67,0,0,1,.46.2,3.26,3.26,0,0,1,.4.24.28.28,0,0,1,.08.12.22.22,0,0,1,0,.12l-.79,1.12a.15.15,0,0,1-.12.07.24.24,0,0,1-.15-.06,1.49,1.49,0,0,0-.45-.26,1.6,1.6,0,0,0-.51-.08,1.58,1.58,0,0,0-.69.14,1.66,1.66,0,0,0-.55.37,1.7,1.7,0,0,0-.37.57,1.78,1.78,0,0,0-.13.7,1.82,1.82,0,0,0,.13.7,1.7,1.7,0,0,0,.37.57,1.55,1.55,0,0,0,.55.38,1.74,1.74,0,0,0,.69.14,1.32,1.32,0,0,0,.53-.1,3.14,3.14,0,0,0,.41-.22Z"/><path class="cls-9" d="M386.1,191.38a.2.2,0,0,1,0-.14.2.2,0,0,1,.13,0h1.24a.16.16,0,0,1,.1,0,.12.12,0,0,1,.05.05l0,.06a.43.43,0,0,0,0,0v1.15a.12.12,0,0,1,0,.09.1.1,0,0,1-.05.06l-.06,0h-1.34l-.06,0a.1.1,0,0,1-.05-.06s0-.05,0-.09Z"/><rect class="cls-9" x="489.94" y="172.08" width="581.33" height="3"/></g></g></svg>