<svg xmlns="http://www.w3.org/2000/svg" xmlns:xlink="http://www.w3.org/1999/xlink" viewBox="0 0 824.2 261.38"><defs><style>.cls-1{fill:url(#linear-gradient);}.cls-2{fill:url(#linear-gradient-2);}.cls-3{fill:url(#linear-gradient-3);}.cls-4{fill:url(#linear-gradient-4);}.cls-5{fill:url(#linear-gradient-5);}.cls-6{fill:url(#linear-gradient-6);}.cls-7{font-size:121.94px;fill:#0c0924;font-family:VisbyCF-Bold, Visby CF;font-weight:700;}</style><linearGradient id="linear-gradient" x1="231.86" y1="593.11" x2="292.32" y2="593.11" gradientTransform="translate(-231.86 -469.94)" gradientUnits="userSpaceOnUse"><stop offset="0" stop-color="#158cf0"/><stop offset="1" stop-color="#0c49ac"/></linearGradient><linearGradient id="linear-gradient-2" x1="247.09" y1="662.21" x2="292.32" y2="662.21" xlink:href="#linear-gradient"/><linearGradient id="linear-gradient-3" x1="292.32" y1="629.06" x2="337.68" y2="629.06" gradientTransform="translate(-231.86 -469.94)" gradientUnits="userSpaceOnUse"><stop offset="0" stop-color="#1279dd"/><stop offset="1" stop-color="#0c49ac"/></linearGradient><linearGradient id="linear-gradient-4" x1="404.03" y1="585.14" x2="343.56" y2="585.14" gradientTransform="translate(-231.86 -469.94)" gradientUnits="userSpaceOnUse"><stop offset="0" stop-color="#f77565"/><stop offset="1" stop-color="#b42f21"/></linearGradient><linearGradient id="linear-gradient-5" x1="384.02" y1="508.59" x2="338.78" y2="508.59" xlink:href="#linear-gradient-4"/><linearGradient id="linear-gradient-6" x1="292.32" y1="541.68" x2="337.68" y2="541.68" gradientTransform="translate(-231.86 -469.94)" gradientUnits="userSpaceOnUse"><stop offset="0" stop-color="#b42f21"/><stop offset="1" stop-color="#f75c48"/></linearGradient></defs><g id="Layer_2" data-name="Layer 2"><g id="Layer_1-2" data-name="Layer 1"><rect class="cls-1" y="100.49" width="60.47" height="45.35"/><polygon class="cls-2" points="60.47 153.62 60.47 217.75 47.29 230.93 15.23 198.87 60.47 153.62"/><path class="cls-3" d="M105.82,159.06v.13a31.92,31.92,0,0,1-9.35,22.57l-36,36V100.49l36,36A31.92,31.92,0,0,1,105.82,159.06Z"/><path class="cls-4" d="M166.29,92.52v45.35H124.07a25.79,25.79,0,0,1-18.25-7.55h0V92.52Z"/><polygon class="cls-5" points="151.06 32.07 105.82 77.31 105.82 13.17 118.99 0 151.06 32.07"/><path class="cls-6" d="M105.82,13.17V130.32l-36-36a31.88,31.88,0,0,1-9.35-22.56h0a31.88,31.88,0,0,1,9.35-22.57Z"/><text class="cls-7" transform="translate(238.74 104.71)">frame one<tspan x="0" y="119.72">table</tspan></text></g></g></svg>