<svg xmlns="http://www.w3.org/2000/svg" xmlns:xlink="http://www.w3.org/1999/xlink" viewBox="0 0 180.01 249.98"><defs><style>.cls-1{fill:url(#linear-gradient);}.cls-2{fill:url(#linear-gradient-2);}.cls-3{fill:url(#linear-gradient-3);}.cls-4{fill:url(#linear-gradient-4);}.cls-5{fill:url(#linear-gradient-5);}.cls-6{fill:url(#linear-gradient-6);}</style><linearGradient id="linear-gradient" x1="231.86" y1="603.27" x2="297.31" y2="603.27" gradientTransform="translate(-231.86 -469.94)" gradientUnits="userSpaceOnUse"><stop offset="0" stop-color="#158cf0"/><stop offset="1" stop-color="#0c49ac"/></linearGradient><linearGradient id="linear-gradient-2" x1="248.34" y1="678.08" x2="297.31" y2="678.08" xlink:href="#linear-gradient"/><linearGradient id="linear-gradient-3" x1="297.31" y1="642.19" x2="346.41" y2="642.19" gradientTransform="translate(-231.86 -469.94)" gradientUnits="userSpaceOnUse"><stop offset="0" stop-color="#1279dd"/><stop offset="1" stop-color="#0c49ac"/></linearGradient><linearGradient id="linear-gradient-4" x1="418.24" y1="594.64" x2="352.78" y2="594.64" gradientTransform="translate(-231.86 -469.94)" gradientUnits="userSpaceOnUse"><stop offset="0" stop-color="#f77565"/><stop offset="1" stop-color="#b42f21"/></linearGradient><linearGradient id="linear-gradient-5" x1="396.58" y1="511.78" x2="347.61" y2="511.78" xlink:href="#linear-gradient-4"/><linearGradient id="linear-gradient-6" x1="297.31" y1="547.6" x2="346.41" y2="547.6" gradientTransform="translate(-231.86 -469.94)" gradientUnits="userSpaceOnUse"><stop offset="0" stop-color="#b42f21"/><stop offset="1" stop-color="#f75c48"/></linearGradient></defs><g id="Layer_2" data-name="Layer 2"><g id="Layer_1-2" data-name="Layer 1"><rect class="cls-1" y="108.78" width="65.46" height="49.09"/><polygon class="cls-2" points="65.46 166.3 65.46 235.72 51.2 249.99 16.49 215.28 65.46 166.3"/><path class="cls-3" d="M114.55,172.19v.14a34.55,34.55,0,0,1-10.12,24.43l-39,39V108.78l39,39A34.54,34.54,0,0,1,114.55,172.19Z"/><path class="cls-4" d="M180,100.16v49.09H134.3a27.94,27.94,0,0,1-19.75-8.18h0V100.16Z"/><polygon class="cls-5" points="163.52 34.72 114.55 83.69 114.55 14.26 128.81 0 163.52 34.72"/><path class="cls-6" d="M114.55,14.26V141.07l-39-39A34.55,34.55,0,0,1,65.46,77.67h0A34.54,34.54,0,0,1,75.58,53.24Z"/></g></g></svg>